<svg width="21" height="21" viewBox="0 0 21 21" fill="none" xmlns="http://www.w3.org/2000/svg">
<path d="M2.625 11.375C2.625 11.1429 2.71719 10.9204 2.88128 10.7563C3.04538 10.5922 3.26794 10.5 3.5 10.5H7C7.23206 10.5 7.45462 10.5922 7.61872 10.7563C7.78281 10.9204 7.875 11.1429 7.875 11.375V16.625C7.875 16.8571 7.78281 17.0796 7.61872 17.2437C7.45462 17.4078 7.23206 17.5 7 17.5H3.5C3.26794 17.5 3.04538 17.4078 2.88128 17.2437C2.71719 17.0796 2.625 16.8571 2.625 16.625V11.375Z" stroke="black" stroke-width="2" stroke-linecap="round" stroke-linejoin="round"/>
<path d="M7.875 7.875C7.875 7.64294 7.96719 7.42038 8.13128 7.25628C8.29538 7.09219 8.51794 7 8.75 7H12.25C12.4821 7 12.7046 7.09219 12.8687 7.25628C13.0328 7.42038 13.125 7.64294 13.125 7.875V16.625C13.125 16.8571 13.0328 17.0796 12.8687 17.2437C12.7046 17.4078 12.4821 17.5 12.25 17.5H8.75C8.51794 17.5 8.29538 17.4078 8.13128 17.2437C7.96719 17.0796 7.875 16.8571 7.875 16.625V7.875Z" stroke="black" stroke-width="2" stroke-linecap="round" stroke-linejoin="round"/>
<path d="M13.125 4.375C13.125 4.14294 13.2172 3.92038 13.3813 3.75628C13.5454 3.59219 13.7679 3.5 14 3.5H17.5C17.7321 3.5 17.9546 3.59219 18.1187 3.75628C18.2828 3.92038 18.375 4.14294 18.375 4.375V16.625C18.375 16.8571 18.2828 17.0796 18.1187 17.2437C17.9546 17.4078 17.7321 17.5 17.5 17.5H14C13.7679 17.5 13.5454 17.4078 13.3813 17.2437C13.2172 17.0796 13.125 16.8571 13.125 16.625V4.375Z" stroke="black" stroke-width="2" stroke-linecap="round" stroke-linejoin="round"/>
<path d="M3.5 17.5H15.75" stroke="black" stroke-width="2" stroke-linecap="round" stroke-linejoin="round"/>
</svg>
