<svg width="22" height="21" viewBox="0 0 22 21" fill="none" xmlns="http://www.w3.org/2000/svg">
<path d="M3.66667 4.375C3.66667 3.91087 3.85982 3.46575 4.20364 3.13756C4.54745 2.80937 5.01377 2.625 5.5 2.625H16.5C16.9862 2.625 17.4525 2.80937 17.7964 3.13756C18.1402 3.46575 18.3333 3.91087 18.3333 4.375V16.625C18.3333 17.0891 18.1402 17.5342 17.7964 17.8624C17.4525 18.1906 16.9862 18.375 16.5 18.375H5.5C5.01377 18.375 4.54745 18.1906 4.20364 17.8624C3.85982 17.5342 3.66667 17.0891 3.66667 16.625V4.375Z" stroke="#2E3CB3" stroke-width="2" stroke-linecap="round" stroke-linejoin="round"/>
<path d="M7.33333 7C7.33333 6.76794 7.42991 6.54538 7.60182 6.38128C7.77373 6.21719 8.00688 6.125 8.25 6.125H13.75C13.9931 6.125 14.2263 6.21719 14.3982 6.38128C14.5701 6.54538 14.6667 6.76794 14.6667 7V7.875C14.6667 8.10706 14.5701 8.32962 14.3982 8.49372C14.2263 8.65781 13.9931 8.75 13.75 8.75H8.25C8.00688 8.75 7.77373 8.65781 7.60182 8.49372C7.42991 8.32962 7.33333 8.10706 7.33333 7.875V7Z" stroke="#2E3CB3" stroke-width="2" stroke-linecap="round" stroke-linejoin="round"/>
<path d="M7.33333 12.25V12.2588" stroke="#2E3CB3" stroke-width="2" stroke-linecap="round" stroke-linejoin="round"/>
<path d="M11 12.25V12.2588" stroke="#2E3CB3" stroke-width="2" stroke-linecap="round" stroke-linejoin="round"/>
<path d="M14.6667 12.25V12.2588" stroke="#2E3CB3" stroke-width="2" stroke-linecap="round" stroke-linejoin="round"/>
<path d="M7.33333 14.875V14.8838" stroke="#2E3CB3" stroke-width="2" stroke-linecap="round" stroke-linejoin="round"/>
<path d="M11 14.875V14.8838" stroke="#2E3CB3" stroke-width="2" stroke-linecap="round" stroke-linejoin="round"/>
<path d="M14.6667 14.875V14.8838" stroke="#2E3CB3" stroke-width="2" stroke-linecap="round" stroke-linejoin="round"/>
</svg>
