<svg width="18" height="18" viewBox="0 0 18 18" fill="none" xmlns="http://www.w3.org/2000/svg">
<path d="M13.5834 5.33334V2.58334C13.5834 2.34022 13.4868 2.10707 13.3149 1.93516C13.143 1.76325 12.9098 1.66667 12.6667 1.66667H3.50002C3.01379 1.66667 2.54747 1.85983 2.20366 2.20364C1.85984 2.54746 1.66669 3.01377 1.66669 3.50001M1.66669 3.50001C1.66669 3.98624 1.85984 4.45255 2.20366 4.79637C2.54747 5.14018 3.01379 5.33334 3.50002 5.33334H14.5C14.7431 5.33334 14.9763 5.42992 15.1482 5.60182C15.3201 5.77373 15.4167 6.00689 15.4167 6.25001V9.00001M1.66669 3.50001V14.5C1.66669 14.9862 1.85984 15.4526 2.20366 15.7964C2.54747 16.1402 3.01379 16.3333 3.50002 16.3333H14.5C14.7431 16.3333 14.9763 16.2368 15.1482 16.0649C15.3201 15.8929 15.4167 15.6598 15.4167 15.4167V12.6667M16.3334 9V12.6667H12.6667C12.1805 12.6667 11.7141 12.4735 11.3703 12.1297C11.0265 11.7859 10.8334 11.3196 10.8334 10.8333C10.8334 10.3471 11.0265 9.88079 11.3703 9.53698C11.7141 9.19316 12.1805 9 12.6667 9H16.3334Z" stroke="#2E3CB3" stroke-width="2" stroke-linecap="round" stroke-linejoin="round"/>
</svg>
