<svg width="42" height="42" viewBox="0 0 42 42" fill="none" xmlns="http://www.w3.org/2000/svg">
<circle cx="21" cy="21" r="21" fill="#EB5757" fill-opacity="0.5"/>
<g clip-path="url(#clip0_6_599)">
<path d="M28.6211 25.1783L28.7547 26.7055C28.8113 27.3521 28.3342 27.9207 27.6907 27.9735L14.3216 29.1466C13.675 29.2032 13.1064 28.7261 13.0536 28.0826L11.8842 14.7166C11.8276 14.07 12.3047 13.5014 12.9482 13.4486L14.4753 13.315C15.1289 13.2578 15.7023 13.7518 15.7458 14.4065L16.2572 22.51L25.2775 11.7599C25.695 11.2625 26.431 11.1981 26.9285 11.6155L28.1255 12.6198C28.6229 13.0373 28.6873 13.7733 28.2699 14.2708L19.2495 25.0209L27.3256 24.1168C27.981 24.0421 28.5671 24.5211 28.6211 25.1783Z" fill="#EB5757"/>
</g>
<defs>
<clipPath id="clip0_6_599">
<rect width="25" height="25" fill="white" transform="translate(8 8)"/>
</clipPath>
</defs>
</svg>
