<svg width="26" height="26" viewBox="0 0 26 26" fill="none" xmlns="http://www.w3.org/2000/svg">
<g clip-path="url(#clip0_52_278)">
<path fill-rule="evenodd" clip-rule="evenodd" d="M4.18454 7.56016V8.81552H2.92918C2.42977 8.81552 1.95081 9.01391 1.59767 9.36704C1.24453 9.72018 1.04614 10.1991 1.04614 10.6986V19.4861C1.04614 19.9855 1.24453 20.4644 1.59767 20.8176C1.95081 21.1707 2.42977 21.3691 2.92918 21.3691H20.0857C20.333 21.3691 20.5779 21.3204 20.8063 21.2258C21.0348 21.1311 21.2424 20.9924 21.4172 20.8176C21.5921 20.6427 21.7308 20.4351 21.8254 20.2067C21.9201 19.9782 21.9688 19.7333 21.9688 19.4861V18.2307H23.2241C24.2619 18.2307 25.1072 17.3854 25.1072 16.3477V7.56016C25.1072 6.5224 24.2619 5.67712 23.2241 5.67712H6.06757C5.02981 5.67712 4.18454 6.5224 4.18454 7.56016ZM6.2768 7.76939V8.81552H20.0857C20.333 8.81552 20.5779 8.86422 20.8063 8.95885C21.0348 9.05349 21.2424 9.19219 21.4172 9.36704C21.5921 9.5419 21.7308 9.74949 21.8254 9.97795C21.9201 10.2064 21.9688 10.4513 21.9688 10.6986V16.1384H23.0149V7.76939H6.2768ZM9.41519 15.0923C9.41519 14.5374 9.63562 14.0052 10.028 13.6129C10.4204 13.2205 10.9525 13 11.5075 13C12.0624 13 12.5945 13.2205 12.9869 13.6129C13.3793 14.0052 13.5997 14.5374 13.5997 15.0923C13.5997 15.6472 13.3793 16.1794 12.9869 16.5718C12.5945 16.9641 12.0624 17.1846 11.5075 17.1846C10.9525 17.1846 10.4204 16.9641 10.028 16.5718C9.63562 16.1794 9.41519 15.6472 9.41519 15.0923Z" fill="#2E3CB3"/>
</g>
<defs>
<clipPath id="clip0_52_278">
<rect width="25.1071" height="25.1071" fill="white" transform="translate(0 0.446411)"/>
</clipPath>
</defs>
</svg>
