<svg width="144" height="38" viewBox="0 0 144 38" fill="none" xmlns="http://www.w3.org/2000/svg">
<path d="M3.42384 30C3.18855 30 2.99604 29.9251 2.84631 29.7754C2.69658 29.6257 2.62171 29.4332 2.62171 29.1979V8.34243C2.62171 8.10714 2.69658 7.91462 2.84631 7.76489C2.99604 7.61516 3.18855 7.5403 3.42384 7.5403H18.151C18.3863 7.5403 18.5788 7.61516 18.7285 7.76489C18.8996 7.91462 18.9852 8.10714 18.9852 8.34243V11.583C18.9852 11.8183 18.8996 12.0108 18.7285 12.1606C18.5788 12.3103 18.3863 12.3852 18.151 12.3852H8.26872V17.1017H17.5093C17.7446 17.1017 17.9371 17.1873 18.0868 17.3584C18.2579 17.5081 18.3435 17.7006 18.3435 17.9359V21.1445C18.3435 21.3584 18.2579 21.5509 18.0868 21.722C17.9371 21.8717 17.7446 21.9466 17.5093 21.9466H8.26872V29.1979C8.26872 29.4332 8.19386 29.6257 8.04412 29.7754C7.89439 29.9251 7.70188 30 7.46659 30H3.42384ZM22.8735 30C22.6383 30 22.4457 29.9251 22.296 29.7754C22.1463 29.6257 22.0714 29.4332 22.0714 29.1979V14.1178C22.0714 13.8825 22.1463 13.69 22.296 13.5402C22.4457 13.3905 22.6383 13.3156 22.8735 13.3156H26.6596C26.8735 13.3156 27.0553 13.3905 27.2051 13.5402C27.3762 13.69 27.4617 13.8825 27.4617 14.1178V29.1979C27.4617 29.4332 27.3762 29.6257 27.2051 29.7754C27.0553 29.9251 26.8735 30 26.6596 30H22.8735ZM22.8415 10.9093C22.6062 10.9093 22.4137 10.8344 22.2639 10.6847C22.1142 10.5349 22.0393 10.3424 22.0393 10.1071V7.25153C22.0393 7.01624 22.1142 6.82373 22.2639 6.67399C22.4137 6.50287 22.6062 6.41731 22.8415 6.41731H26.6596C26.8949 6.41731 27.0874 6.50287 27.2371 6.67399C27.4083 6.82373 27.4938 7.01624 27.4938 7.25153V10.1071C27.4938 10.3424 27.4083 10.5349 27.2371 10.6847C27.0874 10.8344 26.8949 10.9093 26.6596 10.9093H22.8415ZM32.0229 30C31.7876 30 31.5951 29.9251 31.4453 29.7754C31.2956 29.6257 31.2207 29.4332 31.2207 29.1979V14.1178C31.2207 13.8825 31.2956 13.69 31.4453 13.5402C31.5951 13.3905 31.7876 13.3156 32.0229 13.3156H35.7127C35.948 13.3156 36.1405 13.3905 36.2902 13.5402C36.4399 13.69 36.5148 13.8825 36.5148 14.1178V15.337C37.0709 14.6739 37.7982 14.1178 38.6966 13.6686C39.595 13.2194 40.6538 12.9948 41.873 12.9948C43.1137 12.9948 44.2046 13.2729 45.1457 13.829C46.1083 14.3852 46.857 15.2087 47.3917 16.2996C47.9479 17.3691 48.2259 18.6846 48.2259 20.2461V29.1979C48.2259 29.4332 48.1404 29.6257 47.9693 29.7754C47.8195 29.9251 47.6377 30 47.4238 30H43.3811C43.1672 30 42.9746 29.9251 42.8035 29.7754C42.6538 29.6257 42.5789 29.4332 42.5789 29.1979V20.4386C42.5789 19.4332 42.3329 18.6632 41.841 18.1284C41.3704 17.5723 40.6645 17.2942 39.7233 17.2942C38.8463 17.2942 38.1405 17.5723 37.6057 18.1284C37.0923 18.6632 36.8357 19.4332 36.8357 20.4386V29.1979C36.8357 29.4332 36.7501 29.6257 36.579 29.7754C36.4292 29.9251 36.2474 30 36.0335 30H32.0229ZM52.9618 30C52.7265 30 52.534 29.9251 52.3842 29.7754C52.2345 29.6257 52.1596 29.4332 52.1596 29.1979V8.34243C52.1596 8.10714 52.2345 7.91462 52.3842 7.76489C52.534 7.61516 52.7265 7.5403 52.9618 7.5403H61.9457C63.721 7.5403 65.2611 7.81837 66.5659 8.37451C67.8921 8.90927 68.9189 9.7221 69.6461 10.813C70.3948 11.9039 70.7691 13.2836 70.7691 14.952C70.7691 16.599 70.3948 17.9573 69.6461 19.0268C68.9189 20.0963 67.8921 20.8878 66.5659 21.4011C65.2611 21.9145 63.721 22.1712 61.9457 22.1712H58.1275V29.1979C58.1275 29.4332 58.0419 29.6257 57.8708 29.7754C57.7211 29.9251 57.5286 30 57.2933 30H52.9618ZM58.0313 17.7434H61.7852C62.705 17.7434 63.4323 17.5081 63.967 17.0375C64.5232 16.567 64.8012 15.8504 64.8012 14.8878C64.8012 14.075 64.566 13.3905 64.0954 12.8344C63.6248 12.2782 62.8547 12.0002 61.7852 12.0002H58.0313V17.7434ZM74.2915 30C74.0562 30 73.8637 29.9251 73.7139 29.7754C73.5642 29.6257 73.4893 29.4332 73.4893 29.1979V14.1178C73.4893 13.9039 73.5642 13.7221 73.7139 13.5723C73.8637 13.4012 74.0562 13.3156 74.2915 13.3156H77.9813C78.2166 13.3156 78.4091 13.4012 78.5588 13.5723C78.7085 13.7221 78.7834 13.9039 78.7834 14.1178V15.4012C79.3609 14.7381 80.0454 14.2247 80.8369 13.8611C81.6497 13.4975 82.5588 13.3156 83.5641 13.3156H84.9759C85.1898 13.3156 85.3716 13.3905 85.5213 13.5402C85.6924 13.69 85.778 13.8825 85.778 14.1178V17.4226C85.778 17.6365 85.6924 17.829 85.5213 18.0001C85.3716 18.1498 85.1898 18.2247 84.9759 18.2247H81.8636C80.9866 18.2247 80.3021 18.4707 79.8101 18.9627C79.3396 19.4332 79.1043 20.107 79.1043 20.984V29.1979C79.1043 29.4332 79.0187 29.6257 78.8476 29.7754C78.6979 29.9251 78.5053 30 78.27 30H74.2915ZM95.827 30.3209C94.0302 30.3209 92.5115 30.0321 91.2709 29.4546C90.0516 28.877 89.1104 28.0535 88.4474 26.984C87.8056 25.8931 87.442 24.599 87.3565 23.1017C87.3351 22.6739 87.3244 22.1926 87.3244 21.6578C87.3244 21.1017 87.3351 20.6204 87.3565 20.214C87.442 18.6953 87.827 17.4012 88.5115 16.3317C89.196 15.2622 90.1479 14.4386 91.3671 13.8611C92.6077 13.2836 94.0944 12.9948 95.827 12.9948C97.581 12.9948 99.0676 13.2836 100.287 13.8611C101.527 14.4386 102.49 15.2622 103.175 16.3317C103.859 17.4012 104.244 18.6953 104.33 20.214C104.351 20.6204 104.362 21.1017 104.362 21.6578C104.362 22.1926 104.351 22.6739 104.33 23.1017C104.244 24.599 103.87 25.8931 103.207 26.984C102.565 28.0535 101.624 28.877 100.383 29.4546C99.1638 30.0321 97.6451 30.3209 95.827 30.3209ZM95.827 26.4064C96.7895 26.4064 97.4847 26.1177 97.9125 25.5401C98.3617 24.9626 98.6184 24.0963 98.6826 22.9412C98.7039 22.6204 98.7146 22.1926 98.7146 21.6578C98.7146 21.1231 98.7039 20.6953 98.6826 20.3744C98.6184 19.2407 98.3617 18.3851 97.9125 17.8076C97.4847 17.2087 96.7895 16.9092 95.827 16.9092C94.8858 16.9092 94.1906 17.2087 93.7414 17.8076C93.2922 18.3851 93.0462 19.2407 93.0035 20.3744C92.9821 20.6953 92.9714 21.1231 92.9714 21.6578C92.9714 22.1926 92.9821 22.6204 93.0035 22.9412C93.0462 24.0963 93.2922 24.9626 93.7414 25.5401C94.1906 26.1177 94.8858 26.4064 95.827 26.4064Z" fill="white"/>
<g clip-path="url(#clip0_247_2)">
<path fill-rule="evenodd" clip-rule="evenodd" d="M122.399 13.5602V14.8155H121.143C120.644 14.8155 120.165 15.0139 119.812 15.367C119.459 15.7202 119.26 16.1991 119.26 16.6986V25.4861C119.26 25.9855 119.459 26.4644 119.812 26.8176C120.165 27.1707 120.644 27.3691 121.143 27.3691H138.3C138.547 27.3691 138.792 27.3204 139.021 27.2258C139.249 27.1311 139.457 26.9924 139.632 26.8176C139.806 26.6427 139.945 26.4351 140.04 26.2067C140.134 25.9782 140.183 25.7333 140.183 25.4861V24.2307H141.438C142.476 24.2307 143.321 23.3854 143.321 22.3477V13.5602C143.321 12.5224 142.476 11.6771 141.438 11.6771H124.282C123.244 11.6771 122.399 12.5224 122.399 13.5602ZM124.491 13.7694V14.8155H138.3C138.547 14.8155 138.792 14.8642 139.021 14.9589C139.249 15.0535 139.457 15.1922 139.632 15.367C139.806 15.5419 139.945 15.7495 140.04 15.9779C140.134 16.2064 140.183 16.4513 140.183 16.6986V22.1384H141.229V13.7694H124.491ZM127.629 21.0923C127.629 20.5374 127.85 20.0052 128.242 19.6128C128.635 19.2205 129.167 19 129.722 19C130.277 19 130.809 19.2205 131.201 19.6128C131.594 20.0052 131.814 20.5374 131.814 21.0923C131.814 21.6472 131.594 22.1794 131.201 22.5718C130.809 22.9641 130.277 23.1846 129.722 23.1846C129.167 23.1846 128.635 22.9641 128.242 22.5718C127.85 22.1794 127.629 21.6472 127.629 21.0923Z" fill="white"/>
</g>
<defs>
<clipPath id="clip0_247_2">
<rect width="25.1071" height="25.1071" fill="white" transform="translate(118.214 6.44641)"/>
</clipPath>
</defs>
</svg>
