<svg width="30" height="28" viewBox="0 0 30 28" fill="none" xmlns="http://www.w3.org/2000/svg">
<path d="M18.75 14C18.75 14.9282 18.3549 15.8185 17.6517 16.4748C16.9484 17.1312 15.9946 17.5 15 17.5C14.0054 17.5 13.0516 17.1312 12.3483 16.4748C11.6451 15.8185 11.25 14.9282 11.25 14C11.25 13.0717 11.6451 12.1815 12.3483 11.5251C13.0516 10.8687 14.0054 10.5 15 10.5C15.9946 10.5 16.9484 10.8687 17.6517 11.5251C18.3549 12.1815 18.75 13.0717 18.75 14Z" stroke="#D1D1D1" stroke-width="2" stroke-linecap="round" stroke-linejoin="round"/>
<path d="M2.5 14C4.5 9.22015 9.17 5.83331 15 5.83331C20.83 5.83331 25.5 9.22015 27.5 14C25.5 18.7798 20.83 22.1666 15 22.1666C9.17 22.1666 4.5 18.7798 2.5 14Z" stroke="#D1D1D1" stroke-width="2" stroke-linecap="round" stroke-linejoin="round"/>
</svg>
