<svg width="21" height="21" viewBox="0 0 21 21" fill="none" xmlns="http://www.w3.org/2000/svg">
<g clip-path="url(#clip0_1_119)">
<path d="M18.5588 13.9038C18.0021 15.2202 17.1314 16.3802 16.0229 17.2824C14.9143 18.1846 13.6017 18.8015 12.1996 19.0792C10.7976 19.3569 9.34887 19.2869 7.98013 18.8753C6.61139 18.4638 5.3643 17.7232 4.34789 16.7183C3.33149 15.7135 2.57671 14.4749 2.14956 13.111C1.7224 11.747 1.63587 10.2992 1.89752 8.89406C2.15918 7.48894 2.76106 6.16931 3.65054 5.05053C4.54002 3.93176 5.69002 3.04791 7 2.47626" stroke="black" stroke-width="2" stroke-linecap="round" stroke-linejoin="round"/>
<path d="M19.25 10.5C19.25 9.35093 19.0237 8.21312 18.5839 7.15152C18.1442 6.08992 17.4997 5.12533 16.6872 4.31282C15.8747 3.5003 14.9101 2.85578 13.8485 2.41605C12.7869 1.97633 11.6491 1.75 10.5 1.75V10.5H19.25Z" stroke="black" stroke-width="2" stroke-linecap="round" stroke-linejoin="round"/>
</g>
<defs>
<clipPath id="clip0_1_119">
<rect width="21" height="21" fill="white"/>
</clipPath>
</defs>
</svg>
