<svg width="20" height="21" viewBox="0 0 20 21" fill="none" xmlns="http://www.w3.org/2000/svg">
<path d="M9.5 1.52647e-07C10.4831 -0.00025583 11.4393 0.321449 12.2223 0.915933C13.0053 1.51042 13.5721 2.34497 13.836 3.292L13.888 3.497L15.758 3.03C15.8947 2.99598 16.037 2.99122 16.1757 3.01602C16.3143 3.04083 16.4462 3.09465 16.5626 3.17395C16.679 3.25326 16.7773 3.35626 16.8511 3.47621C16.925 3.59616 16.9726 3.73035 16.991 3.87L17 4V5.81C17.564 6.35029 18.0261 6.98781 18.364 7.692L18.502 8H19C19.2449 8.00003 19.4813 8.08996 19.6644 8.25272C19.8474 8.41547 19.9643 8.63975 19.993 8.883L20 9V12C20 12.1646 19.9594 12.3266 19.8818 12.4718C19.8042 12.6169 19.6919 12.7407 19.555 12.832L19.447 12.894L18.279 13.479C17.8017 14.4046 17.1089 15.202 16.259 15.804L16 15.978V17C16 17.2449 15.91 17.4813 15.7473 17.6644C15.5845 17.8474 15.3603 17.9643 15.117 17.993L15 18H12C11.7551 18 11.5187 17.91 11.3356 17.7473C11.1526 17.5845 11.0357 17.3603 11.007 17.117L11 17H10C9.99997 17.2449 9.91004 17.4813 9.74728 17.6644C9.58453 17.8474 9.36025 17.9643 9.117 17.993L9 18H6C5.75507 18 5.51866 17.91 5.33563 17.7473C5.15259 17.5845 5.03566 17.3603 5.007 17.117L5 17V15.978C4.27729 15.5165 3.65304 14.9165 3.16322 14.2127C2.6734 13.5088 2.32769 12.715 2.146 11.877C1.55618 11.7018 1.03451 11.3494 0.651708 10.8677C0.268905 10.3859 0.0434827 9.79816 0.00600004 9.184L0 9V8.5C0.000282707 8.24512 0.0978791 7.99997 0.272848 7.81463C0.447818 7.6293 0.686953 7.51776 0.941395 7.50283C1.19584 7.48789 1.44638 7.57067 1.64183 7.73426C1.83729 7.89785 1.9629 8.1299 1.993 8.383L2 8.5V9C2.00133 9.14933 2.03133 9.28767 2.09 9.415C2.24239 8.51463 2.58279 7.65648 3.08901 6.89646C3.59523 6.13644 4.25591 5.49161 5.028 5.004C4.95705 4.37448 5.01981 3.73708 5.21219 3.1335C5.40456 2.52991 5.72221 1.97374 6.14435 1.50138C6.56649 1.02903 7.0836 0.651121 7.66187 0.392396C8.24013 0.133671 8.8665 -4.39209e-05 9.5 1.52647e-07ZM15 5.28L12.242 5.97L12.122 5.993L12 6H8.5C7.48887 5.99933 6.50698 6.33922 5.71265 6.96486C4.91832 7.59049 4.35785 8.46542 4.12159 9.44856C3.88534 10.4317 3.98708 11.4658 4.4104 12.384C4.83373 13.3022 5.55397 14.0512 6.455 14.51C6.60017 14.5842 6.725 14.6928 6.81859 14.8263C6.91219 14.9598 6.97172 15.1142 6.992 15.276L7 15.4V16H8C8.00003 15.7551 8.08996 15.5187 8.25272 15.3356C8.41547 15.1526 8.63975 15.0357 8.883 15.007L9 15H12C12.2449 15 12.4813 15.09 12.6644 15.2527C12.8474 15.4155 12.9643 15.6397 12.993 15.883L13 16H14V15.4C14.0001 15.2159 14.051 15.0353 14.1472 14.8783C14.2434 14.7212 14.381 14.5938 14.545 14.51C15.4628 14.0404 16.1924 13.2712 16.613 12.33C16.688 12.1617 16.8081 12.0174 16.96 11.913L17.079 11.843L18 11.382V10H17.793C17.5753 9.99994 17.3635 9.9288 17.1899 9.79741C17.0162 9.66601 16.8902 9.48153 16.831 9.272C16.5811 8.3922 16.069 7.60944 15.363 7.028C15.1672 6.86621 15.0402 6.63596 15.008 6.384L15 6.257V5.28ZM14 8C14.2652 8 14.5196 8.10536 14.7071 8.29289C14.8946 8.48043 15 8.73478 15 9C15 9.26522 14.8946 9.51957 14.7071 9.70711C14.5196 9.89464 14.2652 10 14 10C13.7348 10 13.4804 9.89464 13.2929 9.70711C13.1054 9.51957 13 9.26522 13 9C13 8.73478 13.1054 8.48043 13.2929 8.29289C13.4804 8.10536 13.7348 8 14 8ZM9.5 2C8.89429 2 8.30918 2.2199 7.85341 2.61884C7.39763 3.01778 7.1022 3.56862 7.022 4.169C7.50658 4.05629 8.00249 3.99958 8.5 4H11.877L11.947 3.983C11.8284 3.42196 11.5206 2.91874 11.075 2.5577C10.6295 2.19666 10.0734 1.99976 9.5 2Z" fill="black"/>
</svg>
