<svg width="21" height="21" viewBox="0 0 21 21" fill="none" xmlns="http://www.w3.org/2000/svg">
<path d="M7 4.375H5.25C4.78587 4.375 4.34075 4.55937 4.01256 4.88756C3.68437 5.21575 3.5 5.66087 3.5 6.125V16.625C3.5 17.0891 3.68437 17.5342 4.01256 17.8624C4.34075 18.1906 4.78587 18.375 5.25 18.375H10.2349" stroke="black" stroke-width="2" stroke-linecap="round" stroke-linejoin="round"/>
<path d="M15.75 12.25V15.75H19.25" stroke="black" stroke-width="2" stroke-linecap="round" stroke-linejoin="round"/>
<path d="M15.75 9.625V6.125C15.75 5.66087 15.5656 5.21575 15.2374 4.88756C14.9092 4.55937 14.4641 4.375 14 4.375H12.25" stroke="black" stroke-width="2" stroke-linecap="round" stroke-linejoin="round"/>
<path d="M7 4.375C7 3.91087 7.18437 3.46575 7.51256 3.13756C7.84075 2.80937 8.28587 2.625 8.75 2.625H10.5C10.9641 2.625 11.4092 2.80937 11.7374 3.13756C12.0656 3.46575 12.25 3.91087 12.25 4.375C12.25 4.83913 12.0656 5.28425 11.7374 5.61244C11.4092 5.94063 10.9641 6.125 10.5 6.125H8.75C8.28587 6.125 7.84075 5.94063 7.51256 5.61244C7.18437 5.28425 7 4.83913 7 4.375Z" stroke="black" stroke-width="2" stroke-linecap="round" stroke-linejoin="round"/>
<path d="M12.25 15.75C12.25 16.6783 12.6187 17.5685 13.2751 18.2249C13.9315 18.8813 14.8217 19.25 15.75 19.25C16.6783 19.25 17.5685 18.8813 18.2249 18.2249C18.8813 17.5685 19.25 16.6783 19.25 15.75C19.25 14.8217 18.8813 13.9315 18.2249 13.2751C17.5685 12.6187 16.6783 12.25 15.75 12.25C14.8217 12.25 13.9315 12.6187 13.2751 13.2751C12.6187 13.9315 12.25 14.8217 12.25 15.75Z" stroke="black" stroke-width="2" stroke-linecap="round" stroke-linejoin="round"/>
<path d="M7 9.625H10.5" stroke="black" stroke-width="2" stroke-linecap="round" stroke-linejoin="round"/>
<path d="M7 13.125H9.625" stroke="black" stroke-width="2" stroke-linecap="round" stroke-linejoin="round"/>
</svg>
