<svg width="26" height="26" viewBox="0 0 26 26" fill="none" xmlns="http://www.w3.org/2000/svg">
<g clip-path="url(#clip0_52_278)">
<path fill-rule="evenodd" clip-rule="evenodd" d="M4.39883 7.56016V8.81552H3.14347C2.64406 8.81552 2.1651 9.01391 1.81197 9.36704C1.45883 9.72018 1.26044 10.1991 1.26044 10.6986V19.4861C1.26044 19.9855 1.45883 20.4644 1.81197 20.8176C2.1651 21.1707 2.64406 21.3691 3.14347 21.3691H20.3C20.5473 21.3691 20.7922 21.3204 21.0206 21.2258C21.2491 21.1311 21.4567 20.9924 21.6315 20.8176C21.8064 20.6427 21.9451 20.4351 22.0397 20.2067C22.1343 19.9782 22.1831 19.7333 22.1831 19.4861V18.2307H23.4384C24.4762 18.2307 25.3214 17.3854 25.3214 16.3477V7.56016C25.3214 6.5224 24.4762 5.67712 23.4384 5.67712H6.28187C5.2441 5.67712 4.39883 6.5224 4.39883 7.56016ZM6.49109 7.76939V8.81552H20.3C20.5473 8.81552 20.7922 8.86422 21.0206 8.95885C21.2491 9.05349 21.4567 9.19219 21.6315 9.36704C21.8064 9.5419 21.9451 9.74949 22.0397 9.97795C22.1343 10.2064 22.1831 10.4513 22.1831 10.6986V16.1384H23.2292V7.76939H6.49109ZM9.62948 15.0923C9.62948 14.5374 9.84992 14.0052 10.2423 13.6129C10.6347 13.2205 11.1668 13 11.7217 13C12.2766 13 12.8088 13.2205 13.2012 13.6129C13.5936 14.0052 13.814 14.5374 13.814 15.0923C13.814 15.6472 13.5936 16.1794 13.2012 16.5718C12.8088 16.9641 12.2766 17.1846 11.7217 17.1846C11.1668 17.1846 10.6347 16.9641 10.2423 16.5718C9.84992 16.1794 9.62948 15.6472 9.62948 15.0923Z" fill="white"/>
</g>
<defs>
<clipPath id="clip0_52_278">
<rect width="25.1071" height="25.1071" fill="white" transform="translate(0.214294 0.446411)"/>
</clipPath>
</defs>
</svg>
