<svg width="42" height="42" viewBox="0 0 42 42" fill="none" xmlns="http://www.w3.org/2000/svg">
<circle cx="21" cy="21" r="21" fill="#20C997" fill-opacity="0.5"/>
<path d="M28.7713 13.2514C29.1443 13.284 29.4149 13.6107 29.3811 13.975L29.3802 13.9771L28.2108 27.3431C28.1782 27.7161 27.8515 27.9867 27.4872 27.9528L27.4852 27.952L25.958 27.8184C25.5851 27.7857 25.3091 27.4506 25.3499 27.0754L26.2533 19.0076L26.3924 17.7665L14.6848 27.5904C14.399 27.8299 13.9781 27.7931 13.7382 27.5076L12.7339 26.3106C12.4941 26.0248 12.5311 25.6041 12.8167 25.3641L24.5243 15.5402L23.2773 15.4609L15.1669 14.9489L15.1656 14.9488C14.7874 14.9257 14.5067 14.5973 14.5414 14.2232L14.5423 14.2212L14.6759 12.6941C14.7085 12.321 15.0352 12.0505 15.3995 12.0843L15.4023 12.0845L28.7713 13.2514Z" fill="#20C997" stroke="#20C997"/>
</svg>
