<svg width="22" height="22" viewBox="0 0 22 22" fill="none" xmlns="http://www.w3.org/2000/svg">
<g clip-path="url(#clip0_296_2)">
<path d="M15.125 9.625C15.125 11.9075 13.2825 13.75 11 13.75C8.7175 13.75 6.875 11.9075 6.875 9.625C6.875 7.3425 8.7175 5.5 11 5.5C13.2825 5.5 15.125 7.3425 15.125 9.625Z" fill="black"/>
<path fill-rule="evenodd" clip-rule="evenodd" d="M22 11C22 17.0775 17.0775 22 11 22C4.9225 22 0 17.0775 0 11C0 4.9225 4.9225 0 11 0C17.0775 0 22 4.9225 22 11ZM5.5 18.9062C5.72 18.5405 7.85125 15.125 10.9862 15.125C14.1075 15.125 16.2525 18.5488 16.4725 18.9062C17.7511 18.0221 18.7957 16.8406 19.5167 15.4634C20.2376 14.0862 20.6132 12.5545 20.6112 11C20.6112 5.67875 16.3075 1.375 10.9862 1.375C5.665 1.375 1.36125 5.67875 1.36125 11C1.36125 14.2725 2.9975 17.1738 5.5 18.9062Z" fill="black"/>
</g>
<defs>
<clipPath id="clip0_296_2">
<rect width="22" height="22" fill="white"/>
</clipPath>
</defs>
</svg>
