<svg width="22" height="21" viewBox="0 0 22 21" fill="none" xmlns="http://www.w3.org/2000/svg">
<path d="M15.5833 7V4.375C15.5833 4.14294 15.4868 3.92038 15.3148 3.75628C15.1429 3.59219 14.9098 3.5 14.6667 3.5H5.5C5.01377 3.5 4.54745 3.68437 4.20364 4.01256C3.85982 4.34075 3.66667 4.78587 3.66667 5.25M3.66667 5.25C3.66667 5.71413 3.85982 6.15925 4.20364 6.48744C4.54745 6.81563 5.01377 7 5.5 7H16.5C16.7431 7 16.9763 7.09219 17.1482 7.25628C17.3201 7.42038 17.4167 7.64294 17.4167 7.875V10.5M3.66667 5.25V15.75C3.66667 16.2141 3.85982 16.6592 4.20364 16.9874C4.54745 17.3156 5.01377 17.5 5.5 17.5H16.5C16.7431 17.5 16.9763 17.4078 17.1482 17.2437C17.3201 17.0796 17.4167 16.8571 17.4167 16.625V14" stroke="black" stroke-width="2" stroke-linecap="round" stroke-linejoin="round"/>
<path d="M18.3333 10.5V14H14.6667C14.1804 14 13.7141 13.8156 13.3703 13.4874C13.0265 13.1592 12.8333 12.7141 12.8333 12.25C12.8333 11.7859 13.0265 11.3408 13.3703 11.0126C13.7141 10.6844 14.1804 10.5 14.6667 10.5H18.3333Z" stroke="black" stroke-width="2" stroke-linecap="round" stroke-linejoin="round"/>
</svg>
